{
    "asset" : {
        "generator" : "Khronos Blender glTF 2.0 I/O",
        "version" : "2.0"
    },
    "scene" : 0,
    "scenes" : [
        {
            "name" : "Scene",
            "nodes" : [
                0,
                1,
                2,
                3,
                4,
                5,
                6,
                7,
                8,
                9,
                10,
                11
            ]
        }
    ],
    "nodes" : [
        {
            "mesh" : 0,
            "name" : "Plane",
            "scale" : [
                12.585670471191406,
                12.585670471191406,
                12.585670471191406
            ],
            "translation" : [
                0,
                0.19098138809204102,
                0
            ]
        },
        {
            "name" : "Sun",
            "rotation" : [
                -0.5084365010261536,
                0.24853858351707458,
                -0.38402578234672546,
                0.7295513153076172
            ],
            "translation" : [
                7.168115139007568,
                3.6519272327423096,
                -17.46163558959961
            ]
        },
        {
            "mesh" : 1,
            "name" : "Circle.001",
            "translation" : [
                1.8913261890411377,
                3.6292190551757812,
                -1.0779677629470825
            ]
        },
        {
            "mesh" : 2,
            "name" : "Circle",
            "translation" : [
                1.8913261890411377,
                3.6292190551757812,
                -0.9599811434745789
            ]
        },
        {
            "mesh" : 3,
            "name" : "Cube",
            "translation" : [
                2.0146279335021973,
                2.6000001430511475,
                -9
            ]
        },
        {
            "mesh" : 4,
            "name" : "Cube.005",
            "translation" : [
                -0.9999998807907104,
                1.5191020965576172,
                -4
            ]
        },
        {
            "mesh" : 5,
            "name" : "Cube.004",
            "translation" : [
                -0.9999998807907104,
                1.5191020965576172,
                -4
            ]
        },
        {
            "mesh" : 6,
            "name" : "Cube.000",
            "translation" : [
                -1.0000001192092896,
                1.5200001001358032,
                2.0399999618530273
            ]
        },
        {
            "mesh" : 7,
            "name" : "Cube.003",
            "translation" : [
                0,
                3.1254119873046875,
                -9
            ]
        },
        {
            "mesh" : 8,
            "name" : "Cube.002",
            "translation" : [
                -1,
                3.6254119873046875,
                -4
            ]
        },
        {
            "mesh" : 9,
            "name" : "Cube.001",
            "translation" : [
                -0.9999998807907104,
                1.5191020965576172,
                -4
            ]
        },
        {
            "name" : "Camera",
            "rotation" : [
                0.6407751441001892,
                0.14850430190563202,
                -0.12820279598236084,
                0.7422383427619934
            ],
            "translation" : [
                15.627703666687012,
                8.281729698181152,
                31.63477897644043
            ]
        }
    ],
    "materials" : [
        {
            "name" : "Material",
            "pbrMetallicRoughness" : {}
        },
        {
            "name" : "Glass",
            "pbrMetallicRoughness" : {}
        }
    ],
    "meshes" : [
        {
            "name" : "Plane",
            "primitives" : [
                {
                    "attributes" : {
                        "POSITION" : 0,
                        "NORMAL" : 1
                    },
                    "indices" : 2
                }
            ]
        },
        {
            "name" : "Circle.002",
            "primitives" : [
                {
                    "attributes" : {
                        "POSITION" : 3,
                        "NORMAL" : 4
                    },
                    "indices" : 5
                }
            ]
        },
        {
            "name" : "Circle.001",
            "primitives" : [
                {
                    "attributes" : {
                        "POSITION" : 6,
                        "NORMAL" : 7
                    },
                    "indices" : 8
                }
            ]
        },
        {
            "name" : "Cube.008",
            "primitives" : [
                {
                    "attributes" : {
                        "POSITION" : 9,
                        "NORMAL" : 10
                    },
                    "indices" : 11
                }
            ]
        },
        {
            "name" : "Cube.007",
            "primitives" : [
                {
                    "attributes" : {
                        "POSITION" : 12,
                        "NORMAL" : 13
                    },
                    "indices" : 14,
                    "material" : 0
                }
            ]
        },
        {
            "name" : "Cube.006",
            "primitives" : [
                {
                    "attributes" : {
                        "POSITION" : 15,
                        "NORMAL" : 16
                    },
                    "indices" : 17,
                    "material" : 0
                }
            ]
        },
        {
            "name" : "Cube.005",
            "primitives" : [
                {
                    "attributes" : {
                        "POSITION" : 18,
                        "NORMAL" : 19
                    },
                    "indices" : 20,
                    "material" : 0
                },
                {
                    "attributes" : {
                        "POSITION" : 21,
                        "NORMAL" : 22
                    },
                    "indices" : 23,
                    "material" : 1
                }
            ]
        },
        {
            "name" : "Cube.003",
            "primitives" : [
                {
                    "attributes" : {
                        "POSITION" : 24,
                        "NORMAL" : 25
                    },
                    "indices" : 26,
                    "material" : 0
                },
                {
                    "attributes" : {
                        "POSITION" : 27,
                        "NORMAL" : 28
                    },
                    "indices" : 29,
                    "material" : 1
                }
            ]
        },
        {
            "name" : "Cube.002",
            "primitives" : [
                {
                    "attributes" : {
                        "POSITION" : 30,
                        "NORMAL" : 31
                    },
                    "indices" : 32,
                    "material" : 0
                },
                {
                    "attributes" : {
                        "POSITION" : 33,
                        "NORMAL" : 34
                    },
                    "indices" : 35,
                    "material" : 1
                }
            ]
        },
        {
            "name" : "Cube.001",
            "primitives" : [
                {
                    "attributes" : {
                        "POSITION" : 36,
                        "NORMAL" : 37
                    },
                    "indices" : 38,
                    "material" : 0
                }
            ]
        }
    ],
    "accessors" : [
        {
            "bufferView" : 0,
            "componentType" : 5126,
            "count" : 4,
            "max" : [
                1,
                0,
                1
            ],
            "min" : [
                -1,
                0,
                -1
            ],
            "type" : "VEC3"
        },
        {
            "bufferView" : 1,
            "componentType" : 5126,
            "count" : 4,
            "type" : "VEC3"
        },
        {
            "bufferView" : 2,
            "componentType" : 5123,
            "count" : 6,
            "type" : "SCALAR"
        },
        {
            "bufferView" : 3,
            "componentType" : 5126,
            "count" : 32,
            "max" : [
                0.012585410848259926,
                1.4296209371877922e-07,
                0.012590830214321613
            ],
            "min" : [
                -0.012585410848259926,
                -0.6628042459487915,
                -0.012585470452904701
            ],
            "type" : "VEC3"
        },
        {
            "bufferView" : 4,
            "componentType" : 5126,
            "count" : 32,
            "type" : "VEC3"
        },
        {
            "bufferView" : 5,
            "componentType" : 5123,
            "count" : 48,
            "type" : "SCALAR"
        },
        {
            "bufferView" : 6,
            "componentType" : 5126,
            "count" : 32,
            "max" : [
                0.027155756950378418,
                0.027155816555023193,
                5.960464477539063e-08
            ],
            "min" : [
                -0.027155756950378418,
                -0.027155816555023193,
                -6.064701557159424
            ],
            "type" : "VEC3"
        },
        {
            "bufferView" : 7,
            "componentType" : 5126,
            "count" : 32,
            "type" : "VEC3"
        },
        {
            "bufferView" : 8,
            "componentType" : 5123,
            "count" : 48,
            "type" : "SCALAR"
        },
        {
            "bufferView" : 9,
            "componentType" : 5126,
            "count" : 24,
            "max" : [
                0.04388350248336792,
                0.10000014305114746,
                2
            ],
            "min" : [
                -0.04388350248336792,
                -0.10000014305114746,
                -2
            ],
            "type" : "VEC3"
        },
        {
            "bufferView" : 10,
            "componentType" : 5126,
            "count" : 24,
            "type" : "VEC3"
        },
        {
            "bufferView" : 11,
            "componentType" : 5123,
            "count" : 36,
            "type" : "SCALAR"
        },
        {
            "bufferView" : 12,
            "componentType" : 5126,
            "count" : 32,
            "max" : [
                2.7413129806518555,
                -1.0038155317306519,
                1.0000001192092896
            ],
            "min" : [
                1.9700465202331543,
                -1.5179929733276367,
                -1.0000004768371582
            ],
            "type" : "VEC3"
        },
        {
            "bufferView" : 13,
            "componentType" : 5126,
            "count" : 32,
            "type" : "VEC3"
        },
        {
            "bufferView" : 14,
            "componentType" : 5123,
            "count" : 48,
            "type" : "SCALAR"
        },
        {
            "bufferView" : 15,
            "componentType" : 5126,
            "count" : 96,
            "max" : [
                3,
                -0.5191020965576172,
                3.000000476837158
            ],
            "min" : [
                1.9999995231628418,
                -1.5191020965576172,
                -3.000000476837158
            ],
            "type" : "VEC3"
        },
        {
            "bufferView" : 16,
            "componentType" : 5126,
            "count" : 96,
            "type" : "VEC3"
        },
        {
            "bufferView" : 17,
            "componentType" : 5123,
            "count" : 168,
            "type" : "SCALAR"
        },
        {
            "bufferView" : 18,
            "componentType" : 5126,
            "count" : 1283,
            "max" : [
                3.000000476837158,
                3.4800000190734863,
                3.000000476837158
            ],
            "min" : [
                -1.500000238418579,
                -1.5200001001358032,
                -3.000000476837158
            ],
            "type" : "VEC3"
        },
        {
            "bufferView" : 19,
            "componentType" : 5126,
            "count" : 1283,
            "type" : "VEC3"
        },
        {
            "bufferView" : 20,
            "componentType" : 5123,
            "count" : 2604,
            "type" : "SCALAR"
        },
        {
            "bufferView" : 21,
            "componentType" : 5126,
            "count" : 20,
            "max" : [
                2.7586045265197754,
                3.0270252227783203,
                3.000000238418579
            ],
            "min" : [
                -1.5,
                1.065948724746704,
                1.236746907234192
            ],
            "type" : "VEC3"
        },
        {
            "bufferView" : 22,
            "componentType" : 5126,
            "count" : 20,
            "type" : "VEC3"
        },
        {
            "bufferView" : 23,
            "componentType" : 5123,
            "count" : 36,
            "type" : "SCALAR"
        },
        {
            "bufferView" : 24,
            "componentType" : 5126,
            "count" : 2431,
            "max" : [
                2.6905436515808105,
                2.8745880126953125,
                2.0000009536743164
            ],
            "min" : [
                -2.000000238418579,
                -3.1254119873046875,
                -2.000000476837158
            ],
            "type" : "VEC3"
        },
        {
            "bufferView" : 25,
            "componentType" : 5126,
            "count" : 2431,
            "type" : "VEC3"
        },
        {
            "bufferView" : 26,
            "componentType" : 5123,
            "count" : 4692,
            "type" : "SCALAR"
        },
        {
            "bufferView" : 27,
            "componentType" : 5126,
            "count" : 112,
            "max" : [
                1.7878681421279907,
                2.1149327754974365,
                1.787868857383728
            ],
            "min" : [
                -1.7878681421279907,
                1.2894434928894043,
                -1.7878680229187012
            ],
            "type" : "VEC3"
        },
        {
            "bufferView" : 28,
            "componentType" : 5126,
            "count" : 112,
            "type" : "VEC3"
        },
        {
            "bufferView" : 29,
            "componentType" : 5123,
            "count" : 168,
            "type" : "SCALAR"
        },
        {
            "bufferView" : 30,
            "componentType" : 5126,
            "count" : 927,
            "max" : [
                2.200000286102295,
                3.3745880126953125,
                2.0950005054473877
            ],
            "min" : [
                -2.200000286102295,
                -3.6254119873046875,
                -2.194999933242798
            ],
            "type" : "VEC3"
        },
        {
            "bufferView" : 31,
            "componentType" : 5126,
            "count" : 927,
            "type" : "VEC3"
        },
        {
            "bufferView" : 32,
            "componentType" : 5123,
            "count" : 1860,
            "type" : "SCALAR"
        },
        {
            "bufferView" : 33,
            "componentType" : 5126,
            "count" : 72,
            "max" : [
                2.000000238418579,
                2.6622002124786377,
                1.9000003337860107
            ],
            "min" : [
                -2.000000238418579,
                1.774350881576538,
                -2
            ],
            "type" : "VEC3"
        },
        {
            "bufferView" : 34,
            "componentType" : 5126,
            "count" : 72,
            "type" : "VEC3"
        },
        {
            "bufferView" : 35,
            "componentType" : 5123,
            "count" : 108,
            "type" : "SCALAR"
        },
        {
            "bufferView" : 36,
            "componentType" : 5126,
            "count" : 294,
            "max" : [
                3.1500000953674316,
                1.4808979034423828,
                3.0000007152557373
            ],
            "min" : [
                -3.000000238418579,
                -1.5191020965576172,
                -3.000000476837158
            ],
            "type" : "VEC3"
        },
        {
            "bufferView" : 37,
            "componentType" : 5126,
            "count" : 294,
            "type" : "VEC3"
        },
        {
            "bufferView" : 38,
            "componentType" : 5123,
            "count" : 516,
            "type" : "SCALAR"
        }
    ],
    "bufferViews" : [
        {
            "buffer" : 0,
            "byteLength" : 48,
            "byteOffset" : 0
        },
        {
            "buffer" : 0,
            "byteLength" : 48,
            "byteOffset" : 48
        },
        {
            "buffer" : 0,
            "byteLength" : 12,
            "byteOffset" : 96
        },
        {
            "buffer" : 0,
            "byteLength" : 384,
            "byteOffset" : 108
        },
        {
            "buffer" : 0,
            "byteLength" : 384,
            "byteOffset" : 492
        },
        {
            "buffer" : 0,
            "byteLength" : 96,
            "byteOffset" : 876
        },
        {
            "buffer" : 0,
            "byteLength" : 384,
            "byteOffset" : 972
        },
        {
            "buffer" : 0,
            "byteLength" : 384,
            "byteOffset" : 1356
        },
        {
            "buffer" : 0,
            "byteLength" : 96,
            "byteOffset" : 1740
        },
        {
            "buffer" : 0,
            "byteLength" : 288,
            "byteOffset" : 1836
        },
        {
            "buffer" : 0,
            "byteLength" : 288,
            "byteOffset" : 2124
        },
        {
            "buffer" : 0,
            "byteLength" : 72,
            "byteOffset" : 2412
        },
        {
            "buffer" : 0,
            "byteLength" : 384,
            "byteOffset" : 2484
        },
        {
            "buffer" : 0,
            "byteLength" : 384,
            "byteOffset" : 2868
        },
        {
            "buffer" : 0,
            "byteLength" : 96,
            "byteOffset" : 3252
        },
        {
            "buffer" : 0,
            "byteLength" : 1152,
            "byteOffset" : 3348
        },
        {
            "buffer" : 0,
            "byteLength" : 1152,
            "byteOffset" : 4500
        },
        {
            "buffer" : 0,
            "byteLength" : 336,
            "byteOffset" : 5652
        },
        {
            "buffer" : 0,
            "byteLength" : 15396,
            "byteOffset" : 5988
        },
        {
            "buffer" : 0,
            "byteLength" : 15396,
            "byteOffset" : 21384
        },
        {
            "buffer" : 0,
            "byteLength" : 5208,
            "byteOffset" : 36780
        },
        {
            "buffer" : 0,
            "byteLength" : 240,
            "byteOffset" : 41988
        },
        {
            "buffer" : 0,
            "byteLength" : 240,
            "byteOffset" : 42228
        },
        {
            "buffer" : 0,
            "byteLength" : 72,
            "byteOffset" : 42468
        },
        {
            "buffer" : 0,
            "byteLength" : 29172,
            "byteOffset" : 42540
        },
        {
            "buffer" : 0,
            "byteLength" : 29172,
            "byteOffset" : 71712
        },
        {
            "buffer" : 0,
            "byteLength" : 9384,
            "byteOffset" : 100884
        },
        {
            "buffer" : 0,
            "byteLength" : 1344,
            "byteOffset" : 110268
        },
        {
            "buffer" : 0,
            "byteLength" : 1344,
            "byteOffset" : 111612
        },
        {
            "buffer" : 0,
            "byteLength" : 336,
            "byteOffset" : 112956
        },
        {
            "buffer" : 0,
            "byteLength" : 11124,
            "byteOffset" : 113292
        },
        {
            "buffer" : 0,
            "byteLength" : 11124,
            "byteOffset" : 124416
        },
        {
            "buffer" : 0,
            "byteLength" : 3720,
            "byteOffset" : 135540
        },
        {
            "buffer" : 0,
            "byteLength" : 864,
            "byteOffset" : 139260
        },
        {
            "buffer" : 0,
            "byteLength" : 864,
            "byteOffset" : 140124
        },
        {
            "buffer" : 0,
            "byteLength" : 216,
            "byteOffset" : 140988
        },
        {
            "buffer" : 0,
            "byteLength" : 3528,
            "byteOffset" : 141204
        },
        {
            "buffer" : 0,
            "byteLength" : 3528,
            "byteOffset" : 144732
        },
        {
            "buffer" : 0,
            "byteLength" : 1032,
            "byteOffset" : 148260
        }
    ],
    "buffers" : [
        {
            "byteLength" : 149292,
            "uri" : "data:application/octet-stream;base64,"
        }
    ]
}
